<?xml version="1.0" encoding="UTF-8"?>
<svg width="350px" height="350px" viewBox="0 0 350 350" version="1.1" xmlns="http://www.w3.org/2000/svg" xmlns:xlink="http://www.w3.org/1999/xlink">
    <title>LOGO</title>
    <g id="LOGO" stroke="none" stroke-width="1" fill="none" fill-rule="evenodd">
        <g id="Group">
            <path d="M45,0 L305,0 C329.852814,-4.56538782e-15 350,20.1471863 350,45 L350,253.55658 L350,253.55658 L303.220415,299.689239 C303.087186,299.820627 302.954777,299.952843 302.823196,300.085882 L253.456299,350 L253.456299,350 L45,350 C20.1471863,350 3.14653013e-14,329.852814 0,305 L0,45 C-1.72544466e-14,20.1471863 20.1471863,-2.54003954e-15 45,0 Z" id="Rectangle" fill="#F1C40F"></path>
            <path d="M175.333333,110 C210.311367,110 238.666667,138.355299 238.666667,173.333333 L238.666667,230.666667 C238.666667,265.644701 210.311367,294 175.333333,294 C140.355299,294 112,265.644701 112,230.666667 L112,173.333333 C112,138.355299 140.355299,110 175.333333,110 Z" id="Rectangle-2" fill="#000000"></path>
            <rect id="Rectangle" fill="#000000" x="255" y="73" width="56" height="73" rx="28"></rect>
            <rect id="Rectangle" fill="#000000" x="40" y="73" width="56" height="73" rx="28"></rect>
        </g>
        <polygon id="Triangle" fill="#000000" points="351 273 351 350 274 350"></polygon>
    </g>
</svg>